<?xml version="1.0" encoding="UTF-8"?>
<svg id="Layer_1" data-name="Layer 1" xmlns="http://www.w3.org/2000/svg" viewBox="0 0 24 24">
  <defs>
    <style>
      .cls-1 {
        fill: #8ed8f8;
      }

      .cls-1, .cls-2, .cls-3 {
        fill-rule: evenodd;
      }

      .cls-2 {
        fill: #009fe0;
      }

      .cls-3 {
        fill: #007dbd;
      }
    </style>
  </defs>
  <path class="cls-1" d="M13.78,3.84c.08,1.63-.11,3.15-.56,4.56,1.72-.71,3.45-1.08,5.18-1.1-.99,1.99-2.12,3.45-3.38,4.37,2.07,.36,3.52,.93,4.33,1.73-1.37,1.03-2.97,1.74-4.82,2.15,1.13,1.1,1.75,2.18,1.87,3.26-1.52,.18-2.93,.07-4.24-.32,.19,1.22,.09,2.26-.3,3.12-1.1-.49-2.02-1.13-2.77-1.92-.29,.87-.79,1.59-1.51,2.18-.59-.55-1.03-1.38-1.3-2.49-.69,.56-1.39,.89-2.09,.99-.21-.73-.21-1.55-.01-2.47-.69,.17-1.4,.15-2.14-.06,.18-.84,.52-1.56,1-2.16-.84-.29-1.46-.68-1.84-1.17,.45-.64,1.03-1.13,1.76-1.48-.48-.47-.88-1.23-1.2-2.26,.56-.38,1.34-.54,2.34-.48-.19-1.26-.21-2.35-.06-3.27,.75,0,1.58,.36,2.48,1.05,.44-1.72,1-3.02,1.7-3.9,.84,.78,1.39,1.79,1.65,3.02,1.42-1.67,2.73-2.79,3.93-3.35h0ZM11.88,.16c.84,.88,1.47,2.1,1.89,3.67,1.85-1.03,3.82-1.76,5.89-2.2-.09,1.94-.51,3.83-1.27,5.66,2.01,.14,3.87,.6,5.6,1.38-1.79,2.22-3.34,3.79-4.65,4.71,1.11,.99,1.96,2.24,2.56,3.74-2.02,.88-3.85,1.44-5.51,1.67,.16,1.28,.05,2.49-.34,3.65-1.78-.22-3.18-.5-4.2-.85-.61,1.08-1.22,1.82-1.82,2.24-.96-.56-1.78-1.22-2.45-1.98-.92,.52-1.7,.81-2.32,.88-.53-.87-.89-1.66-1.08-2.38-.95,.06-1.68-.02-2.19-.23-.06-.88-.05-1.64,.03-2.3-.89-.52-1.49-.94-1.77-1.26,.24-.79,.55-1.48,.93-2.07-.61-.83-1.01-1.55-1.19-2.15,.62-.71,1.2-1.24,1.75-1.59-.24-1.2-.32-2.24-.25-3.12,.81-.37,1.65-.58,2.53-.62,.36-1.6,.8-2.92,1.32-3.96,1.12,.13,2.07,.5,2.85,1.11,1.13-1.49,2.36-2.82,3.69-4h0Z"/>
  <path class="cls-2" d="M13.78,3.84c.08,1.63-.11,3.15-.56,4.56,1.72-.71,3.45-1.08,5.18-1.1-.99,1.99-2.12,3.45-3.38,4.37,2.07,.36,3.52,.93,4.33,1.73-1.37,1.03-2.97,1.74-4.82,2.15,1.13,1.1,1.75,2.18,1.87,3.26-1.52,.18-2.93,.07-4.24-.32,.19,1.22,.09,2.26-.3,3.12-1.1-.49-2.02-1.13-2.77-1.92-.29,.87-.79,1.59-1.51,2.18-.59-.55-1.03-1.38-1.3-2.49-.69,.56-1.39,.89-2.09,.99-.21-.73-.21-1.55-.01-2.47-.69,.17-1.4,.15-2.14-.06,.18-.84,.52-1.56,1-2.16-.84-.29-1.46-.68-1.84-1.17,.45-.64,1.03-1.13,1.76-1.48-.48-.47-.88-1.23-1.2-2.26,.56-.38,1.34-.54,2.34-.48-.19-1.26-.21-2.35-.06-3.27,.75,0,1.58,.36,2.48,1.05,.44-1.72,1-3.02,1.7-3.9,.84,.78,1.39,1.79,1.65,3.02,1.42-1.67,2.73-2.79,3.93-3.35h0Zm-7.28,4.23c.72,.65,1.21,1.33,1.48,2.06,.27-.73,.89-1.71,1.86-2.94,.25,1.22,.31,2.26,.19,3.1,.98-.76,2.04-1.39,3.17-1.89-.45,1.32-.99,2.4-1.61,3.24,1.46-.13,2.6-.11,3.41,.04-1.03,.97-2.04,1.69-3.02,2.14,1.14,.58,1.98,1.16,2.52,1.74-.91,.31-2.02,.43-3.31,.37,.45,.67,.76,1.53,.94,2.56-1.05-.3-1.92-.7-2.59-1.2-.03,1.04-.18,1.83-.48,2.4-.55-.49-1.01-1.14-1.4-1.97-.38,.62-.85,1.17-1.41,1.66-.18-.57-.27-1.3-.25-2.2-.65,.43-1.27,.67-1.85,.73,.14-.77,.39-1.42,.75-1.93-.85-.03-1.47-.12-1.89-.28,.46-.57,.95-1.04,1.49-1.42-.56-.23-1.08-.64-1.57-1.24,.58-.33,1.24-.51,1.97-.55-.48-.78-.76-1.51-.84-2.19,.72,.06,1.4,.28,2.04,.64,.02-1.35,.15-2.3,.38-2.86h0Z"/>
  <path class="cls-3" d="M6.5,8.06c.72,.65,1.21,1.33,1.48,2.06,.27-.73,.89-1.71,1.86-2.94,.25,1.22,.31,2.26,.19,3.1,.98-.76,2.04-1.39,3.17-1.89-.45,1.32-.99,2.4-1.61,3.24,1.46-.13,2.6-.11,3.41,.04-1.03,.97-2.04,1.69-3.02,2.14,1.14,.58,1.98,1.16,2.52,1.74-.91,.31-2.02,.43-3.31,.37,.45,.67,.76,1.53,.94,2.56-1.05-.3-1.92-.7-2.59-1.2-.03,1.04-.18,1.83-.48,2.4-.55-.49-1.01-1.14-1.4-1.97-.38,.62-.85,1.17-1.41,1.66-.18-.57-.27-1.3-.25-2.2-.65,.43-1.27,.67-1.85,.73,.14-.77,.39-1.42,.75-1.93-.85-.03-1.47-.12-1.89-.28,.46-.57,.95-1.04,1.49-1.42-.56-.23-1.08-.64-1.57-1.24,.58-.33,1.24-.51,1.97-.55-.48-.78-.76-1.51-.84-2.19,.72,.06,1.4,.28,2.04,.64,.02-1.35,.15-2.3,.38-2.86h0Zm1.47,2.15c.25,.44,.42,1.07,.49,1.9,.33-.61,.83-1.19,1.5-1.74-.11,.87-.32,1.59-.66,2.16,.91-.49,1.64-.75,2.19-.79-.53,.75-1.1,1.31-1.69,1.69,.89,.05,1.59,.18,2.11,.39-.82,.44-1.55,.66-2.2,.66,.71,.47,1.18,.92,1.43,1.35-.54,.04-1.21-.12-1.98-.48,.26,.65,.39,1.27,.41,1.84-.45-.27-.88-.71-1.3-1.34-.12,.84-.3,1.43-.55,1.77-.24-.45-.36-1.04-.37-1.76-.47,.62-.88,1.03-1.24,1.24,.1-.68,.27-1.24,.5-1.68-.52,.29-1.05,.46-1.58,.51,.33-.51,.72-.93,1.15-1.26-.61-.06-1.13-.19-1.55-.4,.47-.31,.99-.49,1.56-.54-.59-.44-.98-.84-1.18-1.2,.5,0,1.05,.11,1.64,.34-.29-.61-.44-1.22-.46-1.84,.49,.31,.92,.72,1.26,1.24,.13-.8,.3-1.48,.51-2.04h0Z"/>
</svg>