<?xml version="1.0" encoding="UTF-8"?>
<!DOCTYPE svg PUBLIC "-//W3C//DTD SVG 1.1//EN" "http://www.w3.org/Graphics/SVG/1.1/DTD/svg11.dtd">
<svg xmlns="http://www.w3.org/2000/svg" version="1.1" width="100px" height="78px" style="shape-rendering:geometricPrecision; text-rendering:geometricPrecision; image-rendering:optimizeQuality; fill-rule:evenodd; clip-rule:evenodd" xmlns:xlink="http://www.w3.org/1999/xlink">
<g><path style="opacity:1" fill="#b18c4c" d="M 62.5,-0.5 C 63.5,-0.5 64.5,-0.5 65.5,-0.5C 75.5352,1.24234 84.3685,5.57568 92,12.5C 93.6636,15.3271 94.8303,18.3271 95.5,21.5C 94.8333,21.5 94.1667,21.5 93.5,21.5C 93.5979,19.4471 92.9313,17.7804 91.5,16.5C 90.1667,13.1667 87.8333,10.8333 84.5,9.5C 75.2361,3.1551 64.9028,0.988434 53.5,3C 36.8583,5.40281 23.025,12.9028 12,25.5C 10.5787,27.4048 9.41202,29.4048 8.5,31.5C 7.56552,30.4324 7.23219,29.099 7.5,27.5C 9.67323,23.3395 12.6732,19.8395 16.5,17C 20.8428,14.1632 25.1762,11.3298 29.5,8.5C 34.1067,7.35669 38.2734,5.35669 42,2.5C 44.9523,2.38572 47.9523,2.38572 51,2.5C 54.7816,1.03396 58.615,0.0339605 62.5,-0.5 Z"/></g>
<g><path style="opacity:1" fill="#e8decb" d="M 84.5,9.5 C 83.391,9.55688 82.391,9.89022 81.5,10.5C 81.631,9.76109 81.4643,9.09442 81,8.5C 78.227,11.2129 76.3937,10.5463 75.5,6.5C 74.5481,8.04533 74.2148,9.71199 74.5,11.5C 72.6951,12.9094 70.6951,13.4094 68.5,13C 67.1912,11.2493 67.5245,9.74926 69.5,8.5C 66.7033,7.26006 65.0366,8.26006 64.5,11.5C 65.8545,15.9171 68.8545,17.5837 73.5,16.5C 74.1667,16.5 74.5,16.8333 74.5,17.5C 67.9135,19.2848 64.2468,16.9515 63.5,10.5C 65.2153,5.03028 67.882,4.36361 71.5,8.5C 71.0233,9.47758 70.3567,10.3109 69.5,11C 71.6032,11.2514 72.9365,10.2514 73.5,8C 73.1802,6.34684 72.1802,5.34684 70.5,5C 44.4434,2.53749 23.7767,11.7042 8.5,32.5C 8.5,32.1667 8.5,31.8333 8.5,31.5C 9.41202,29.4048 10.5787,27.4048 12,25.5C 23.025,12.9028 36.8583,5.40281 53.5,3C 64.9028,0.988434 75.2361,3.1551 84.5,9.5 Z"/></g>
<g><path style="opacity:1" fill="#af8b4a" d="M 63.5,10.5 C 62.7784,10.9175 62.2784,11.5842 62,12.5C 61.5831,11.244 60.7498,10.5774 59.5,10.5C 58.396,12.3885 57.0627,14.0552 55.5,15.5C 51.351,21.139 48.851,27.4723 48,34.5C 44.6301,36.6743 42.7967,39.6743 42.5,43.5C 39.3979,43.846 36.5645,43.1793 34,41.5C 33.352,36.3424 33.6854,31.3424 35,26.5C 30.4509,32.3289 28.1175,38.9956 28,46.5C 25.7487,50.1265 22.5821,51.2931 18.5,50C 22.415,44.5176 24.2483,38.3509 24,31.5C 24.6355,30.0337 25.4688,28.7003 26.5,27.5C 26.1667,27.1667 25.8333,26.8333 25.5,26.5C 20.5514,32.6019 18.0514,39.6019 18,47.5C 14.8727,50.7098 11.0394,52.0431 6.5,51.5C 6.5,52.5 6.5,53.5 6.5,54.5C 5.31283,52.2598 4.64617,49.7598 4.5,47C 5.44845,42.0373 6.78178,37.204 8.5,32.5C 23.7767,11.7042 44.4434,2.53749 70.5,5C 72.1802,5.34684 73.1802,6.34684 73.5,8C 72.9365,10.2514 71.6032,11.2514 69.5,11C 70.3567,10.3109 71.0233,9.47758 71.5,8.5C 67.882,4.36361 65.2153,5.03028 63.5,10.5 Z"/></g>
<g><path style="opacity:1" fill="#f4efe6" d="M 59.5,10.5 C 54.4711,13.1022 49.6377,16.1022 45,19.5C 44.3828,18.5509 44.5494,17.7175 45.5,17C 50.9261,13.8712 56.0928,10.3712 61,6.5C 61.2997,8.06566 60.7997,9.39899 59.5,10.5 Z"/></g>
<g><path style="opacity:1" fill="#ae8a48" d="M 81.5,10.5 C 80.1667,11.5 78.8333,12.5 77.5,13.5C 77.1788,11.9519 76.1788,11.2852 74.5,11.5C 74.2148,9.71199 74.5481,8.04533 75.5,6.5C 76.3937,10.5463 78.227,11.2129 81,8.5C 81.4643,9.09442 81.631,9.76109 81.5,10.5 Z"/></g>
<g><path style="opacity:1" fill="#b18d4d" d="M 59.5,10.5 C 60.7498,10.5774 61.5831,11.244 62,12.5C 62.2784,11.5842 62.7784,10.9175 63.5,10.5C 64.2468,16.9515 67.9135,19.2848 74.5,17.5C 74.8333,17.5 75.1667,17.5 75.5,17.5C 76.7498,17.5774 77.5831,18.244 78,19.5C 78.2784,18.5842 78.7784,17.9175 79.5,17.5C 79.5,18.5 79.5,19.5 79.5,20.5C 81.5138,20.3915 83.1805,21.0582 84.5,22.5C 82.9812,23.4098 81.3146,24.2432 79.5,25C 80.4158,25.2784 81.0825,25.7784 81.5,26.5C 79.9382,26.7329 78.6049,27.3995 77.5,28.5C 77.19,27.2617 76.69,27.2617 76,28.5C 75.8019,26.6183 75.3019,24.9516 74.5,23.5C 72.9519,23.8212 72.2852,24.8212 72.5,26.5C 71.7321,25.7375 71.2321,24.7375 71,23.5C 70.3918,25.0664 69.5585,26.3998 68.5,27.5C 68.9153,25.0523 67.9153,23.7189 65.5,23.5C 60.295,25.0176 55.795,27.6842 52,31.5C 52.7575,28.9124 53.7575,26.2457 55,23.5C 55.2868,21.1093 55.7868,18.7759 56.5,16.5C 56.3764,15.8933 56.0431,15.56 55.5,15.5C 57.0627,14.0552 58.396,12.3885 59.5,10.5 Z"/></g>
<g><path style="opacity:1" fill="#ad8846" d="M 74.5,11.5 C 74.5,12.1667 74.5,12.8333 74.5,13.5C 72.2043,13.8041 71.871,14.8041 73.5,16.5C 68.8545,17.5837 65.8545,15.9171 64.5,11.5C 65.0366,8.26006 66.7033,7.26006 69.5,8.5C 67.5245,9.74926 67.1912,11.2493 68.5,13C 70.6951,13.4094 72.6951,12.9094 74.5,11.5 Z"/></g>
<g><path style="opacity:1" fill="#f7f4ed" d="M 84.5,9.5 C 87.8333,10.8333 90.1667,13.1667 91.5,16.5C 88.8333,14.5 86.5,12.1667 84.5,9.5 Z"/></g>
<g><path style="opacity:1" fill="#efe8dc" d="M 74.5,11.5 C 76.1788,11.2852 77.1788,11.9519 77.5,13.5C 76.5,13.5 75.5,13.5 74.5,13.5C 74.5,12.8333 74.5,12.1667 74.5,11.5 Z"/></g>
<g><path style="opacity:1" fill="#f9f6f2" d="M 34.5,15.5 C 36.5,15.5 38.5,15.5 40.5,15.5C 40.1661,20.8807 37.4994,22.8807 32.5,21.5C 34.1128,20.5726 35.7795,19.7393 37.5,19C 36.062,18.7811 34.7287,18.2811 33.5,17.5C 33.8627,16.8165 34.1961,16.1499 34.5,15.5 Z"/></g>
<g><path style="opacity:1" fill="#ceb78f" d="M 81.5,10.5 C 80.2128,13.4532 78.2128,15.7865 75.5,17.5C 75.1667,17.5 74.8333,17.5 74.5,17.5C 74.5,16.8333 74.1667,16.5 73.5,16.5C 71.871,14.8041 72.2043,13.8041 74.5,13.5C 75.5,13.5 76.5,13.5 77.5,13.5C 78.8333,12.5 80.1667,11.5 81.5,10.5 Z"/></g>
<g><path style="opacity:1" fill="#af8b4a" d="M 84.5,9.5 C 86.5,12.1667 88.8333,14.5 91.5,16.5C 91.4021,18.5529 92.0687,20.2196 93.5,21.5C 94.5324,27.4907 94.6991,33.4907 94,39.5C 95.0438,37.2852 95.7105,34.9519 96,32.5C 96.4643,33.0944 96.631,33.7611 96.5,34.5C 96.2311,39.2637 94.8978,43.597 92.5,47.5C 90.6171,44.4488 88.4505,44.1155 86,46.5C 85.6012,46.2716 85.4346,45.9382 85.5,45.5C 86.7298,43.7028 87.3964,41.7028 87.5,39.5C 83.4754,39.1839 79.4754,39.0172 75.5,39C 72.5602,41.3627 71.2269,44.196 71.5,47.5C 73.1848,43.749 75.8514,42.749 79.5,44.5C 79.4555,47.4423 77.7889,49.609 74.5,51C 68.3333,52.8333 66.1667,50.6667 68,44.5C 69.2545,40.996 70.7545,37.6626 72.5,34.5C 72.9382,34.5654 73.2716,34.3988 73.5,34C 72.8333,33.6667 72.1667,33.3333 71.5,33C 72.4158,32.7216 73.0825,32.2216 73.5,31.5C 74.0916,28.8728 74.4249,26.2062 74.5,23.5C 75.3019,24.9516 75.8019,26.6183 76,28.5C 76.69,27.2617 77.19,27.2617 77.5,28.5C 76.2101,31.1917 77.0435,33.1917 80,34.5C 83.7635,32.1637 84.2635,29.497 81.5,26.5C 81.0825,25.7784 80.4158,25.2784 79.5,25C 81.3146,24.2432 82.9812,23.4098 84.5,22.5C 84.5281,19.7486 85.5281,17.4153 87.5,15.5C 85.2823,14.8123 83.7823,15.8123 83,18.5C 81.9593,16.6885 80.7927,16.3552 79.5,17.5C 78.7784,17.9175 78.2784,18.5842 78,19.5C 77.5831,18.244 76.7498,17.5774 75.5,17.5C 78.2128,15.7865 80.2128,13.4532 81.5,10.5C 82.391,9.89022 83.391,9.55688 84.5,9.5 Z"/></g>
<g><path style="opacity:1" fill="#efe9db" d="M 91.5,16.5 C 92.9313,17.7804 93.5979,19.4471 93.5,21.5C 92.0687,20.2196 91.4021,18.5529 91.5,16.5 Z"/></g>
<g><path style="opacity:1" fill="#f9f6f1" d="M 55.5,15.5 C 56.0431,15.56 56.3764,15.8933 56.5,16.5C 55.7868,18.7759 55.2868,21.1093 55,23.5C 53.7575,26.2457 52.7575,28.9124 52,31.5C 55.795,27.6842 60.295,25.0176 65.5,23.5C 67.9153,23.7189 68.9153,25.0523 68.5,27.5C 64.6109,35.0552 59.2776,41.3886 52.5,46.5C 46.009,50.2748 39.009,52.1081 31.5,52C 30.9747,51.3076 30.3081,50.8076 29.5,50.5C 27.2784,53.2246 24.4451,54.8913 21,55.5C 19.1878,55.5066 17.6878,54.84 16.5,53.5C 13.4134,56.9889 10.0801,57.3222 6.5,54.5C 6.5,53.5 6.5,52.5 6.5,51.5C 11.0394,52.0431 14.8727,50.7098 18,47.5C 18.0514,39.6019 20.5514,32.6019 25.5,26.5C 25.8333,26.8333 26.1667,27.1667 26.5,27.5C 25.4688,28.7003 24.6355,30.0337 24,31.5C 24.2483,38.3509 22.415,44.5176 18.5,50C 22.5821,51.2931 25.7487,50.1265 28,46.5C 28.1175,38.9956 30.4509,32.3289 35,26.5C 33.6854,31.3424 33.352,36.3424 34,41.5C 36.5645,43.1793 39.3979,43.846 42.5,43.5C 42.7967,39.6743 44.6301,36.6743 48,34.5C 48.851,27.4723 51.351,21.139 55.5,15.5 Z"/></g>
<g><path style="opacity:1" fill="#e8decb" d="M 84.5,22.5 C 83.1805,21.0582 81.5138,20.3915 79.5,20.5C 79.5,19.5 79.5,18.5 79.5,17.5C 80.7927,16.3552 81.9593,16.6885 83,18.5C 83.7823,15.8123 85.2823,14.8123 87.5,15.5C 85.5281,17.4153 84.5281,19.7486 84.5,22.5 Z"/></g>
<g><path style="opacity:1" fill="#f9f7f2" d="M 81.5,26.5 C 84.2635,29.497 83.7635,32.1637 80,34.5C 77.0435,33.1917 76.2101,31.1917 77.5,28.5C 78.6049,27.3995 79.9382,26.7329 81.5,26.5 Z"/></g>
<g><path style="opacity:1" fill="#e9e0ce" d="M 74.5,23.5 C 74.4249,26.2062 74.0916,28.8728 73.5,31.5C 72.5489,30.0813 72.2155,28.4147 72.5,26.5C 72.2852,24.8212 72.9519,23.8212 74.5,23.5 Z"/></g>
<g><path style="opacity:1" fill="#d4bf9b" d="M 93.5,21.5 C 94.1667,21.5 94.8333,21.5 95.5,21.5C 97.6314,25.7921 97.9648,30.1254 96.5,34.5C 96.631,33.7611 96.4643,33.0944 96,32.5C 95.7105,34.9519 95.0438,37.2852 94,39.5C 94.6991,33.4907 94.5324,27.4907 93.5,21.5 Z"/></g>
<g><path style="opacity:1" fill="#dccfb2" d="M 13.5,32.5 C 14.4735,29.352 16.4735,27.5187 19.5,27C 17.6298,29.0396 15.6298,30.8729 13.5,32.5 Z"/></g>
<g><path style="opacity:1" fill="#ae8a48" d="M 58.5,29.5 C 60.288,29.2148 61.9547,29.5481 63.5,30.5C 58.5952,37.1052 52.2619,40.7718 44.5,41.5C 45.5922,38.9058 47.2589,36.7391 49.5,35C 52.5638,33.1412 55.5638,31.3079 58.5,29.5 Z"/></g>
<g><path style="opacity:1" fill="#f4efe7" d="M 13.5,32.5 C 12.3914,34.5544 11.3914,36.7211 10.5,39C 11.4335,41.5909 12.7669,43.9243 14.5,46C 14.3865,47.2798 13.7199,48.1131 12.5,48.5C 6.97603,42.8256 7.30936,37.4923 13.5,32.5 Z"/></g>
<g><path style="opacity:1" fill="#f8f5f0" d="M 72.5,34.5 C 70.7545,37.6626 69.2545,40.996 68,44.5C 66.1667,50.6667 68.3333,52.8333 74.5,51C 77.7889,49.609 79.4555,47.4423 79.5,44.5C 75.8514,42.749 73.1848,43.749 71.5,47.5C 71.2269,44.196 72.5602,41.3627 75.5,39C 79.4754,39.0172 83.4754,39.1839 87.5,39.5C 87.3964,41.7028 86.7298,43.7028 85.5,45.5C 84.5084,45.3284 83.8417,45.6618 83.5,46.5C 80.7975,51.3775 77.4641,55.8775 73.5,60C 70.1653,62.2909 67.332,61.7909 65,58.5C 63.4027,49.1295 65.9027,41.1295 72.5,34.5 Z"/></g>
<g><path style="opacity:1" fill="#f9f7f2" d="M 59.5,51.5 C 58.8826,51.6107 58.3826,51.944 58,52.5C 57.1841,51.1772 56.0174,50.5106 54.5,50.5C 54.7949,47.5696 56.2949,45.5696 59,44.5C 62.099,46.516 62.2657,48.8494 59.5,51.5 Z"/></g>
<g><path style="opacity:0.843" fill="#b38e50" d="M 4.5,36.5 C 5.04309,36.56 5.37642,36.8933 5.5,37.5C 4.22219,41.2192 3.22219,44.8859 2.5,48.5C 1.23989,44.2492 1.90656,40.2492 4.5,36.5 Z"/></g>
<g><path style="opacity:1" fill="#b08c4d" d="M 92.5,47.5 C 90.1122,51.7562 87.1122,55.5895 83.5,59C 75.5952,65.4521 66.9285,70.6188 57.5,74.5C 56.914,74.2907 56.414,73.9574 56,73.5C 53.7724,75.1134 51.2724,75.78 48.5,75.5C 44.9581,75.1872 41.6248,75.5206 38.5,76.5C 37.8333,76.5 37.5,76.8333 37.5,77.5C 34.8333,77.5 32.1667,77.5 29.5,77.5C 27.337,76.5309 25.0037,75.6976 22.5,75C 18.9716,71.7363 14.9716,69.2363 10.5,67.5C 5.69017,63.2137 3.0235,57.8804 2.5,51.5C 3.89518,54.1418 5.39518,56.8085 7,59.5C 7.38447,57.8034 7.21781,56.1368 6.5,54.5C 10.0801,57.3222 13.4134,56.9889 16.5,53.5C 17.6878,54.84 19.1878,55.5066 21,55.5C 24.4451,54.8913 27.2784,53.2246 29.5,50.5C 30.3081,50.8076 30.9747,51.3076 31.5,52C 39.009,52.1081 46.009,50.2748 52.5,46.5C 53.7914,47.4728 53.7914,48.4728 52.5,49.5C 53.0362,51.1449 53.7029,51.4782 54.5,50.5C 56.0174,50.5106 57.1841,51.1772 58,52.5C 58.3826,51.944 58.8826,51.6107 59.5,51.5C 60.4054,52.7024 60.4054,54.0357 59.5,55.5C 50.2557,57.0554 43.9224,62.3887 40.5,71.5C 34.5574,72.8424 28.5574,72.509 22.5,70.5C 22.1667,70.8333 21.8333,71.1667 21.5,71.5C 30.1088,74.5314 38.7754,75.1981 47.5,73.5C 51.4163,72.1876 55.4163,71.1876 59.5,70.5C 63.1454,69.0127 66.812,67.5127 70.5,66C 72.6175,64.9509 74.2842,63.4509 75.5,61.5C 81.237,58.9262 85.4036,54.9262 88,49.5C 87.6174,50.056 87.1174,50.3893 86.5,50.5C 86.5654,50.0618 86.3988,49.7284 86,49.5C 84.3333,51.1667 82.6667,52.8333 81,54.5C 81.1724,51.6487 82.3391,49.1487 84.5,47C 84.2716,46.6012 83.9382,46.4346 83.5,46.5C 83.8417,45.6618 84.5084,45.3284 85.5,45.5C 85.4346,45.9382 85.6012,46.2716 86,46.5C 88.4505,44.1155 90.6171,44.4488 92.5,47.5 Z"/></g>
<g><path style="opacity:1" fill="#d2be99" d="M 7.5,27.5 C 7.23219,29.099 7.56552,30.4324 8.5,31.5C 8.5,31.8333 8.5,32.1667 8.5,32.5C 6.78178,37.204 5.44845,42.0373 4.5,47C 4.64617,49.7598 5.31283,52.2598 6.5,54.5C 7.21781,56.1368 7.38447,57.8034 7,59.5C 5.39518,56.8085 3.89518,54.1418 2.5,51.5C 2.5,50.5 2.5,49.5 2.5,48.5C 3.22219,44.8859 4.22219,41.2192 5.5,37.5C 5.37642,36.8933 5.04309,36.56 4.5,36.5C 5.81678,33.5467 6.81678,30.5467 7.5,27.5 Z"/></g>
<g><path style="opacity:1" fill="#f6f3ec" d="M 41.5,71.5 C 41.1667,71.5 40.8333,71.5 40.5,71.5C 43.9224,62.3887 50.2557,57.0554 59.5,55.5C 60.4584,55.0472 61.2917,54.3805 62,53.5C 60.6416,62.183 55.475,66.683 46.5,67C 44.313,68.025 42.6464,69.525 41.5,71.5 Z"/></g>
<g><path style="opacity:1" fill="#e6dbc6" d="M 75.5,61.5 C 79.4729,58.1938 83.1396,54.5271 86.5,50.5C 87.1174,50.3893 87.6174,50.056 88,49.5C 85.4036,54.9262 81.237,58.9262 75.5,61.5 Z"/></g>
<g><path style="opacity:1" fill="#ae8947" d="M 72.5,26.5 C 72.2155,28.4147 72.5489,30.0813 73.5,31.5C 73.0825,32.2216 72.4158,32.7216 71.5,33C 72.1667,33.3333 72.8333,33.6667 73.5,34C 73.2716,34.3988 72.9382,34.5654 72.5,34.5C 65.9027,41.1295 63.4027,49.1295 65,58.5C 67.332,61.7909 70.1653,62.2909 73.5,60C 77.4641,55.8775 80.7975,51.3775 83.5,46.5C 83.9382,46.4346 84.2716,46.6012 84.5,47C 82.3391,49.1487 81.1724,51.6487 81,54.5C 82.6667,52.8333 84.3333,51.1667 86,49.5C 86.3988,49.7284 86.5654,50.0618 86.5,50.5C 83.1396,54.5271 79.4729,58.1938 75.5,61.5C 71.2198,63.6401 66.8864,65.8068 62.5,68C 60.8659,68.4935 59.1992,68.6602 57.5,68.5C 53.7207,69.5578 50.0541,70.8911 46.5,72.5C 44.5853,72.7845 42.9187,72.4511 41.5,71.5C 42.6464,69.525 44.313,68.025 46.5,67C 55.475,66.683 60.6416,62.183 62,53.5C 61.2917,54.3805 60.4584,55.0472 59.5,55.5C 60.4054,54.0357 60.4054,52.7024 59.5,51.5C 62.2657,48.8494 62.099,46.516 59,44.5C 56.2949,45.5696 54.7949,47.5696 54.5,50.5C 53.7029,51.4782 53.0362,51.1449 52.5,49.5C 53.7914,48.4728 53.7914,47.4728 52.5,46.5C 59.2776,41.3886 64.6109,35.0552 68.5,27.5C 69.5585,26.3998 70.3918,25.0664 71,23.5C 71.2321,24.7375 71.7321,25.7375 72.5,26.5 Z"/></g>
<g><path style="opacity:1" fill="#e4d7c0" d="M 13.5,58.5 C 14.8734,58.3433 16.2068,58.51 17.5,59C 16.1667,60 16.1667,61 17.5,62C 15.8333,61.3333 14.1667,61.3333 12.5,62C 13.3366,60.9887 13.67,59.8221 13.5,58.5 Z"/></g>
<g><path style="opacity:1" fill="#dccdb1" d="M 75.5,61.5 C 74.2842,63.4509 72.6175,64.9509 70.5,66C 66.812,67.5127 63.1454,69.0127 59.5,70.5C 58.8333,69.8333 58.1667,69.1667 57.5,68.5C 59.1992,68.6602 60.8659,68.4935 62.5,68C 66.8864,65.8068 71.2198,63.6401 75.5,61.5 Z"/></g>
<g><path style="opacity:1" fill="#e6dbc5" d="M 31.5,62.5 C 32.3764,62.3691 33.0431,62.7025 33.5,63.5C 28.5652,65.8253 28.5652,67.6586 33.5,69C 26.1999,69.0537 25.5333,66.887 31.5,62.5 Z"/></g>
<g><path style="opacity:1" fill="#f5f1e9" d="M 57.5,68.5 C 58.1667,69.1667 58.8333,69.8333 59.5,70.5C 55.4163,71.1876 51.4163,72.1876 47.5,73.5C 46.8333,73.5 46.5,73.1667 46.5,72.5C 50.0541,70.8911 53.7207,69.5578 57.5,68.5 Z"/></g>
<g><path style="opacity:1" fill="#ccb68d" d="M 40.5,71.5 C 40.8333,71.5 41.1667,71.5 41.5,71.5C 42.9187,72.4511 44.5853,72.7845 46.5,72.5C 46.5,73.1667 46.8333,73.5 47.5,73.5C 38.7754,75.1981 30.1088,74.5314 21.5,71.5C 21.8333,71.1667 22.1667,70.8333 22.5,70.5C 28.5574,72.509 34.5574,72.8424 40.5,71.5 Z"/></g>
<g><path style="opacity:0.616" fill="#c8ae81" d="M 38.5,76.5 C 41.6248,75.5206 44.9581,75.1872 48.5,75.5C 46.5,76.1667 44.5,76.8333 42.5,77.5C 42.1667,77.5 41.8333,77.5 41.5,77.5C 40.791,76.596 39.791,76.2627 38.5,76.5 Z"/></g>
</svg>
